<svg width="93" height="93" viewBox="0 0 93 93" fill="none" xmlns="http://www.w3.org/2000/svg">
<path d="M12.1032 80.1473C12.2376 72.3444 16.9813 68.9032 20.0681 67.6352L22.3869 69.9806C14.2918 73.881 15.8057 75.7732 14.8636 83.6612C14.11 89.9716 8.35946 91.6967 5.57842 91.7705L5.14585 88.9874C7.89685 88.9434 11.9819 87.1894 12.1032 80.1473Z" fill="#D6D6D6"/>
<path d="M20.5439 70.0999C15.6185 65.1178 15.6645 57.0863 20.6465 52.161L29.6672 43.2428L47.5035 61.2843L38.4828 70.2025C33.5008 75.1278 25.4692 75.0819 20.5439 70.0999Z" fill="#E068BD"/>
<path d="M33.2341 46.8516L37.2935 42.8384C38.0408 42.0996 39.2455 42.1065 39.9843 42.8538C40.7231 43.6011 40.7162 44.8058 39.9689 45.5446L35.9096 49.5578L33.2341 46.8516Z" fill="#EF8BBD"/>
<path d="M41.261 54.9697L45.3203 50.9566C46.0676 50.2178 47.2724 50.2246 48.0112 50.972C48.75 51.7193 48.7431 52.924 47.9958 53.6628L43.9364 57.676L41.261 54.9697Z" fill="#EF8BBD"/>
<path d="M79.3612 14.5613C71.5574 14.6064 68.0621 19.3105 66.7589 22.3826L69.0776 24.728C73.0704 16.6782 74.9451 18.2136 82.8433 17.3618C89.1619 16.6804 90.9528 10.95 91.0584 8.16995L88.2804 7.70557C88.2049 10.4559 86.4043 14.5206 79.3612 14.5613Z" fill="#D6D6D6"/>
<path d="M69.134 21.8982C64.2086 16.9162 56.1771 16.8702 51.1951 21.7956L42.1743 30.7137L60.0106 48.7552L69.0314 39.8371C74.0134 34.9117 74.0593 26.8802 69.134 21.8982Z" fill="#8BB6EF"/>
<rect x="41.283" y="29.8115" width="4.56657" height="27.9068" rx="0.507397" transform="rotate(-44.6723 41.283 29.8115)" fill="#79A7E3"/>
<path d="M6.34226 38.801C6.45104 38.1406 7.40066 38.1406 7.50945 38.801L7.84594 40.8439L9.88885 41.1804C10.5493 41.2892 10.5493 42.2388 9.88885 42.3476L7.84594 42.6841L7.50945 44.727C7.40066 45.3874 6.45104 45.3874 6.34226 44.727L6.00576 42.6841L3.96286 42.3476C3.30242 42.2388 3.30242 41.2892 3.96286 41.1804L6.00576 40.8439L6.34226 38.801Z" fill="#FFBEDF"/>
<path d="M26.9562 7.08636C27.1738 5.76548 29.0731 5.76548 29.2906 7.08636L29.9636 11.1722L34.0494 11.8452C35.3703 12.0627 35.3703 13.962 34.0494 14.1795L29.9636 14.8525L29.2906 18.9383C29.0731 20.2592 27.1738 20.2592 26.9562 18.9383L26.2833 14.8525L22.1974 14.1795C20.8766 13.962 20.8766 12.0627 22.1974 11.8452L26.2833 11.1722L26.9562 7.08636Z" fill="#FDD9EB"/>
<path d="M69.6035 70.8997C69.7368 70.0901 70.9008 70.0901 71.0342 70.8997L71.4467 73.4039L73.9509 73.8163C74.7605 73.9497 74.7605 75.1137 73.9509 75.2471L71.4467 75.6596L71.0342 78.1638C70.9008 78.9733 69.7368 78.9733 69.6035 78.1638L69.191 75.6596L66.6868 75.2471C65.8772 75.1137 65.8772 73.9497 66.6868 73.8163L69.191 73.4039L69.6035 70.8997Z" fill="#FDD9EB"/>
<path d="M74.9876 47.176C75.0651 46.7056 75.7414 46.7056 75.8189 47.176L76.0586 48.631L77.5135 48.8707C77.9839 48.9481 77.9839 49.6245 77.5135 49.7019L76.0586 49.9416L75.8189 51.3966C75.7414 51.867 75.0651 51.867 74.9876 51.3966L74.7479 49.9416L73.293 49.7019C72.8226 49.6245 72.8226 48.9481 73.293 48.8707L74.7479 48.631L74.9876 47.176Z" fill="#FFBEDF"/>
<circle cx="42.9667" cy="79.1938" r="1.68497" fill="#FED7EA"/>
</svg>
