<svg width="46" height="46" viewBox="0 0 46 46" fill="none" xmlns="http://www.w3.org/2000/svg">
<path d="M20.4444 35.7778C20.4444 36.4556 20.7137 37.1056 21.1929 37.5848C21.6722 38.0641 22.3222 38.3333 23 38.3333C23.6778 38.3333 24.3278 38.0641 24.8071 37.5848C25.2863 37.1056 25.5556 36.4556 25.5556 35.7778C25.5556 35.1 25.2863 34.45 24.8071 33.9707C24.3278 33.4915 23.6778 33.2222 23 33.2222C22.3222 33.2222 21.6722 33.4915 21.1929 33.9707C20.7137 34.45 20.4444 35.1 20.4444 35.7778ZM20.4444 0V10.2222H25.5556V5.31556C34.2189 6.56778 40.8889 13.9789 40.8889 23C40.8889 27.7444 39.0042 32.2945 35.6494 35.6494C32.2945 39.0042 27.7444 40.8889 23 40.8889C18.2556 40.8889 13.7055 39.0042 10.3506 35.6494C6.99583 32.2945 5.11111 27.7444 5.11111 23C5.11111 18.7067 6.61889 14.7711 9.14889 11.7044L23 25.5556L26.6033 21.9522L9.22556 4.57444V4.62556C3.62889 8.81667 0 15.4611 0 23C0 29.1 2.42321 34.9501 6.73654 39.2635C11.0499 43.5768 16.9 46 23 46C29.1 46 34.9501 43.5768 39.2635 39.2635C43.5768 34.9501 46 29.1 46 23C46 16.9 43.5768 11.0499 39.2635 6.73654C34.9501 2.42321 29.1 0 23 0H20.4444ZM38.3333 23C38.3333 22.3222 38.0641 21.6722 37.5848 21.1929C37.1056 20.7137 36.4556 20.4444 35.7778 20.4444C35.1 20.4444 34.45 20.7137 33.9707 21.1929C33.4915 21.6722 33.2222 22.3222 33.2222 23C33.2222 23.6778 33.4915 24.3278 33.9707 24.8071C34.45 25.2863 35.1 25.5556 35.7778 25.5556C36.4556 25.5556 37.1056 25.2863 37.5848 24.8071C38.0641 24.3278 38.3333 23.6778 38.3333 23ZM7.66667 23C7.66667 23.6778 7.93591 24.3278 8.41517 24.8071C8.89443 25.2863 9.54445 25.5556 10.2222 25.5556C10.9 25.5556 11.55 25.2863 12.0293 24.8071C12.5085 24.3278 12.7778 23.6778 12.7778 23C12.7778 22.3222 12.5085 21.6722 12.0293 21.1929C11.55 20.7137 10.9 20.4444 10.2222 20.4444C9.54445 20.4444 8.89443 20.7137 8.41517 21.1929C7.93591 21.6722 7.66667 22.3222 7.66667 23Z" fill="#E27625"/>
</svg>
